# xmcd
#
# Track frame offsets: 
#        150
#        13201
#        27787
#        40955
#        52322
#        65068
#        77024
#        90732
#        105328
#        117157
#        130165
#        142030
#        155237
#        166775
#        179011
#        190059
#        202596
#        214887
#        227239
#        240885
#        253164
#        265034
#        275359
#        288460
#        298639
#        311540
#        321884
#        333328
#        343555
#
# Disc length: 4720 seconds
#
# Revision: 0
# Processed by: cddbd v1.5.2PL0 Copyright (c) Steve Scherf et al.
# Submitted via: ExactAudioCopy v0.99pb5
#
DISCID=ae126e1d
DTITLE=Ruth Brown - Taking Care Of Business
DYEAR=2011
DGENRE=Blues
TTITLE0=Teardrops From My Eyes
TTITLE1=5-10-15 Hours
TTITLE2=Mama He Treats Your Daughter Mean
TTITLE3=Wild Wild Young Men
TTITLE4=Mending Your Ways
TTITLE5=If You Don't Want Me
TTITLE6=Love Contest
TTITLE7=It's All In Your Mind
TTITLE8=Sentimental Journey
TTITLE9=If I Had Any Sense
TTITLE10=Hello Little Boy
TTITLE11=Oh What A Dream
TTITLE12=Please Don't Freeze
TTITLE13=Mambo Baby
TTITLE14=Somebody Touched Me
TTITLE15=Ever Since My Baby's Been Gone
TTITLE16=Bye Bye Young Men
TTITLE17=As Long As I'm Moving
TTITLE18=I Can See Everybody's Baby
TTITLE19=It's Love Baby (24 Hours A Day)
TTITLE20=What'd I Say
TTITLE21=I Gotta Have You
TTITLE22=Love Has Joined Us Together
TTITLE23=Old Man River
TTITLE24=I Want To Do More
TTITLE25=I'm Getting Right
TTITLE26=Sweet Baby Of Mine
TTITLE27=Mom Oh Mon
TTITLE28=I Want To Be Loved
EXTD=
EXTT0=
EXTT1=
EXTT2=
EXTT3=
EXTT4=
EXTT5=
EXTT6=
EXTT7=
EXTT8=
EXTT9=
EXTT10=
EXTT11=
EXTT12=
EXTT13=
EXTT14=
EXTT15=
EXTT16=
EXTT17=
EXTT18=
EXTT19=
EXTT20=
EXTT21=
EXTT22=
EXTT23=
EXTT24=
EXTT25=
EXTT26=
EXTT27=
EXTT28=
PLAYORDER=
